<svg width="12" height="12" viewBox="0 0 12 12" fill="none" xmlns="http://www.w3.org/2000/svg">
<path fill-rule="evenodd" clip-rule="evenodd" d="M9.30466 0.621047C9.49759 0.541132 9.70437 0.5 9.9132 0.5C10.122 0.5 10.3288 0.541132 10.5217 0.621047C10.7147 0.700962 10.89 0.818095 11.0376 0.96576C11.1853 1.11342 11.3024 1.28873 11.3824 1.48166C11.4623 1.67459 11.5034 1.88138 11.5034 2.0902C11.5034 2.29903 11.4623 2.50581 11.3824 2.69875C11.3024 2.89168 11.1853 3.06698 11.0376 3.21465L7.66879 6.58351C7.42481 6.82749 7.11472 6.99324 6.77689 7.06082C6.77686 7.06082 6.77691 7.06081 6.77689 7.06082L5.21922 7.37259C5.0553 7.4054 4.88583 7.35411 4.7676 7.23593C4.64938 7.11774 4.59803 6.94829 4.63078 6.78436L4.94196 5.2267C5.00977 4.88876 5.17618 4.57803 5.42006 4.33446C5.42009 4.33443 5.42003 4.33449 5.42006 4.33446L8.78876 0.96576C8.93642 0.818097 9.11172 0.700963 9.30466 0.621047ZM9.9132 1.5C9.83569 1.5 9.75895 1.51527 9.68734 1.54493C9.61573 1.57459 9.55067 1.61806 9.49587 1.67287L8.90034 2.26839L9.73521 3.10287L10.3305 2.50754C10.3853 2.45273 10.4288 2.38767 10.4585 2.31606C10.4881 2.24446 10.5034 2.16771 10.5034 2.0902C10.5034 2.0127 10.4881 1.93595 10.4585 1.86434C10.4288 1.79274 10.3853 1.72767 10.3305 1.67287C10.2757 1.61806 10.2107 1.57459 10.1391 1.54493C10.0675 1.51527 9.99071 1.5 9.9132 1.5ZM9.0281 3.80998L8.19323 2.9755L6.12701 5.04172C6.02285 5.14574 5.95154 5.2785 5.92254 5.42281C5.92253 5.42288 5.92256 5.42274 5.92254 5.42281L5.75832 6.24485L6.58063 6.08027C6.72512 6.05137 6.85744 5.98064 6.96168 5.8764L9.0281 3.80998Z" fill="#32A46D"/>
<path fill-rule="evenodd" clip-rule="evenodd" d="M2.17648 2.67627C1.99707 2.67627 1.825 2.74754 1.69814 2.87441C1.57127 3.00127 1.5 3.17334 1.5 3.35275V9.82341C1.5 10.0028 1.57127 10.1749 1.69814 10.3018C1.825 10.4286 1.99707 10.4999 2.17648 10.4999H8.64714C8.82655 10.4999 8.99862 10.4286 9.12548 10.3018C9.25235 10.1749 9.32362 10.0028 9.32362 9.82341V8.05868C9.32362 7.78254 9.54748 7.55868 9.82362 7.55868C10.0998 7.55868 10.3236 7.78254 10.3236 8.05868V9.82341C10.3236 10.268 10.147 10.6945 9.83259 11.0089C9.51819 11.3233 9.09177 11.4999 8.64714 11.4999H2.17648C1.73185 11.4999 1.30543 11.3233 0.99103 11.0089C0.676629 10.6945 0.5 10.268 0.5 9.82341V3.35275C0.5 2.90812 0.676629 2.4817 0.99103 2.1673C1.30543 1.8529 1.73185 1.67627 2.17648 1.67627H3.94121C4.21735 1.67627 4.44121 1.90013 4.44121 2.17627C4.44121 2.45241 4.21735 2.67627 3.94121 2.67627H2.17648Z" fill="#32A46D"/>
</svg>
