<svg width="20" height="20" viewBox="0 0 20 20" fill="none" xmlns="http://www.w3.org/2000/svg">
<path d="M6.17708 9.5C5.05208 9.53534 4.13194 9.98772 3.41667 10.8571H2.02083C1.45139 10.8571 0.972222 10.714 0.583333 10.4277C0.194444 10.1415 0 9.72266 0 9.17132C0 6.67615 0.430556 5.42857 1.29167 5.42857C1.33333 5.42857 1.48438 5.50279 1.74479 5.65123C2.00521 5.79966 2.34375 5.94987 2.76042 6.10184C3.17708 6.25381 3.59028 6.3298 4 6.3298C4.46528 6.3298 4.92708 6.24851 5.38542 6.08594C5.35069 6.34747 5.33333 6.58073 5.33333 6.78571C5.33333 7.76823 5.61458 8.67299 6.17708 9.5ZM17.3333 16.2539C17.3333 17.1021 17.0799 17.7719 16.5729 18.2631C16.066 18.7544 15.3924 19 14.5521 19H5.44792C4.60764 19 3.93403 18.7544 3.42708 18.2631C2.92014 17.7719 2.66667 17.1021 2.66667 16.2539C2.66667 15.8793 2.67882 15.5135 2.70312 15.1565C2.72743 14.7996 2.77604 14.4143 2.84896 14.0008C2.92188 13.5873 3.01389 13.2039 3.125 12.8504C3.23611 12.497 3.38542 12.1524 3.57292 11.8167C3.76042 11.4809 3.97569 11.1947 4.21875 10.9579C4.46181 10.7211 4.75868 10.532 5.10938 10.3906C5.46007 10.2493 5.84722 10.1786 6.27083 10.1786C6.34028 10.1786 6.48958 10.2546 6.71875 10.4065C6.94792 10.5585 7.20139 10.7281 7.47917 10.9155C7.75694 11.1028 8.12847 11.2724 8.59375 11.4244C9.05903 11.5764 9.52778 11.6523 10 11.6523C10.4722 11.6523 10.941 11.5764 11.4062 11.4244C11.8715 11.2724 12.2431 11.1028 12.5208 10.9155C12.7986 10.7281 13.0521 10.5585 13.2812 10.4065C13.5104 10.2546 13.6597 10.1786 13.7292 10.1786C14.1528 10.1786 14.5399 10.2493 14.8906 10.3906C15.2413 10.532 15.5382 10.7211 15.7812 10.9579C16.0243 11.1947 16.2396 11.4809 16.4271 11.8167C16.6146 12.1524 16.7639 12.497 16.875 12.8504C16.9861 13.2039 17.0781 13.5873 17.151 14.0008C17.224 14.4143 17.2726 14.7996 17.2969 15.1565C17.3212 15.5135 17.3333 15.8793 17.3333 16.2539ZM6.66667 2.71429C6.66667 3.46354 6.40625 4.10324 5.88542 4.63337C5.36458 5.1635 4.73611 5.42857 4 5.42857C3.26389 5.42857 2.63542 5.1635 2.11458 4.63337C1.59375 4.10324 1.33333 3.46354 1.33333 2.71429C1.33333 1.96503 1.59375 1.32533 2.11458 0.795201C2.63542 0.265067 3.26389 0 4 0C4.73611 0 5.36458 0.265067 5.88542 0.795201C6.40625 1.32533 6.66667 1.96503 6.66667 2.71429ZM14 6.78571C14 7.9096 13.6094 8.86914 12.8281 9.66434C12.0469 10.4595 11.1042 10.8571 10 10.8571C8.89583 10.8571 7.95312 10.4595 7.17188 9.66434C6.39062 8.86914 6 7.9096 6 6.78571C6 5.66183 6.39062 4.70229 7.17188 3.90709C7.95312 3.11189 8.89583 2.71429 10 2.71429C11.1042 2.71429 12.0469 3.11189 12.8281 3.90709C13.6094 4.70229 14 5.66183 14 6.78571ZM20 9.17132C20 9.72266 19.8056 10.1415 19.4167 10.4277C19.0278 10.714 18.5486 10.8571 17.9792 10.8571H16.5833C15.8681 9.98772 14.9479 9.53534 13.8229 9.5C14.3854 8.67299 14.6667 7.76823 14.6667 6.78571C14.6667 6.58073 14.6493 6.34747 14.6146 6.08594C15.0729 6.24851 15.5347 6.3298 16 6.3298C16.4097 6.3298 16.8229 6.25381 17.2396 6.10184C17.6563 5.94987 17.9948 5.79966 18.2552 5.65123C18.5156 5.50279 18.6667 5.42857 18.7083 5.42857C19.5694 5.42857 20 6.67615 20 9.17132ZM18.6667 2.71429C18.6667 3.46354 18.4063 4.10324 17.8854 4.63337C17.3646 5.1635 16.7361 5.42857 16 5.42857C15.2639 5.42857 14.6354 5.1635 14.1146 4.63337C13.5938 4.10324 13.3333 3.46354 13.3333 2.71429C13.3333 1.96503 13.5938 1.32533 14.1146 0.795201C14.6354 0.265067 15.2639 0 16 0C16.7361 0 17.3646 0.265067 17.8854 0.795201C18.4063 1.32533 18.6667 1.96503 18.6667 2.71429Z" fill="black"/>
</svg>
