<svg width="24" height="24" viewBox="0 0 24 24" fill="none" xmlns="http://www.w3.org/2000/svg">
<path d="M12.0223 6.84375C9.16518 6.84375 6.88839 9.16518 6.88839 11.9777C6.88839 14.8348 9.16518 17.1116 12.0223 17.1116C14.8348 17.1116 17.1563 14.8348 17.1563 11.9777C17.1563 9.16518 14.8348 6.84375 12.0223 6.84375ZM12.0223 15.3259C10.192 15.3259 8.67411 13.8527 8.67411 11.9777C8.67411 10.1473 10.1473 8.67411 12.0223 8.67411C13.8527 8.67411 15.3259 10.1473 15.3259 11.9777C15.3259 13.8527 13.8527 15.3259 12.0223 15.3259ZM18.5402 6.66518C18.5402 5.99554 18.0045 5.45982 17.3348 5.45982C16.6652 5.45982 16.1295 5.99554 16.1295 6.66518C16.1295 7.33482 16.6652 7.87054 17.3348 7.87054C18.0045 7.87054 18.5402 7.33482 18.5402 6.66518ZM21.933 7.87054C21.8438 6.26339 21.4866 4.83482 20.3259 3.67411C19.1652 2.51339 17.7366 2.15625 16.1295 2.06696C14.4777 1.97768 9.52232 1.97768 7.87054 2.06696C6.26339 2.15625 4.87946 2.51339 3.67411 3.67411C2.51339 4.83482 2.15625 6.26339 2.06696 7.87054C1.97768 9.52232 1.97768 14.4777 2.06696 16.1295C2.15625 17.7366 2.51339 19.1205 3.67411 20.3259C4.87946 21.4866 6.26339 21.8438 7.87054 21.933C9.52232 22.0223 14.4777 22.0223 16.1295 21.933C17.7366 21.8438 19.1652 21.4866 20.3259 20.3259C21.4866 19.1205 21.8438 17.7366 21.933 16.1295C22.0223 14.4777 22.0223 9.52232 21.933 7.87054ZM19.7902 17.8705C19.4777 18.7634 18.7634 19.433 17.9152 19.7902C16.5759 20.3259 13.4509 20.192 12.0223 20.192C10.5491 20.192 7.42411 20.3259 6.12946 19.7902C5.23661 19.433 4.56696 18.7634 4.20982 17.8705C3.67411 16.5759 3.80804 13.4509 3.80804 11.9777C3.80804 10.5491 3.67411 7.42411 4.20982 6.08482C4.56696 5.23661 5.23661 4.56696 6.12946 4.20982C7.42411 3.67411 10.5491 3.80804 12.0223 3.80804C13.4509 3.80804 16.5759 3.67411 17.9152 4.20982C18.7634 4.52232 19.433 5.23661 19.7902 6.08482C20.3259 7.42411 20.192 10.5491 20.192 11.9777C20.192 13.4509 20.3259 16.5759 19.7902 17.8705Z" fill="black"/>
</svg>
