<svg width="20" height="20" viewBox="0 0 20 20" fill="none" xmlns="http://www.w3.org/2000/svg">
<path d="M13.4688 1C12.5465 0.999789 11.6369 1.21562 10.8131 1.6302C9.9892 2.04478 9.27391 2.64659 8.7245 3.38738C8.17509 4.12818 7.80684 4.98737 7.64927 5.89611C7.4917 6.80484 7.54919 7.73786 7.81712 8.62038L1 15.4375V19.375H4.9375L11.7546 12.5579C12.567 12.8045 13.423 12.873 14.2642 12.7589C15.1055 12.6447 15.9123 12.3505 16.6296 11.8964C17.3469 11.4423 17.9578 10.8388 18.4208 10.1272C18.8838 9.41557 19.1879 8.6125 19.3125 7.77272C19.437 6.93293 19.3791 6.07616 19.1425 5.2608C18.906 4.44544 18.4965 3.69065 17.9419 3.04787C17.3873 2.40509 16.7006 1.88943 15.9287 1.53603C15.1568 1.18263 14.3177 0.999803 13.4688 1ZM13.4688 11.5C13.0169 11.4998 12.5676 11.433 12.1353 11.3018L11.3825 11.0734L10.8267 11.6293L8.73916 13.7168L7.83419 12.8125L6.90625 13.7404L7.81122 14.6454L6.77041 15.6862L5.86544 14.7812L4.9375 15.7092L5.84247 16.6142L4.39412 18.0625H2.3125V15.9809L8.74506 9.54831L9.30156 8.99247L9.07319 8.23975C8.79269 7.31509 8.81092 6.32552 9.12526 5.41182C9.43961 4.49811 10.0341 3.70679 10.8241 3.15042C11.6141 2.59405 12.5594 2.30096 13.5256 2.31285C14.4918 2.32473 15.4297 2.64099 16.2058 3.21663C16.9819 3.79227 17.5567 4.59797 17.8485 5.51914C18.1402 6.4403 18.1341 7.43001 17.8309 8.3475C17.5278 9.26498 16.943 10.0635 16.1599 10.6295C15.3767 11.1955 14.435 11.5001 13.4688 11.5Z" fill="black"/>
<path d="M14.125 7.5625C14.8499 7.5625 15.4375 6.97487 15.4375 6.25C15.4375 5.52513 14.8499 4.9375 14.125 4.9375C13.4001 4.9375 12.8125 5.52513 12.8125 6.25C12.8125 6.97487 13.4001 7.5625 14.125 7.5625Z" fill="black"/>
</svg>
