<svg width="17" height="17" viewBox="0 0 17 17" fill="none" xmlns="http://www.w3.org/2000/svg">
<path fill-rule="evenodd" clip-rule="evenodd" d="M9.43571 16.0643C9.43571 16.443 9.12871 16.75 8.75 16.75C6.62827 16.75 4.59344 15.9071 3.09315 14.4069C1.59285 12.9066 0.749999 10.8717 0.749999 8.75C0.749999 6.62827 1.59285 4.59344 3.09314 3.09315C4.59344 1.59285 6.62827 0.75 8.75 0.75C9.12871 0.75 9.43571 1.05701 9.43571 1.43571C9.43571 1.81442 9.12871 2.12143 8.75 2.12143C6.99199 2.12143 5.30599 2.81979 4.06289 4.06289C2.81979 5.30599 2.12143 6.99199 2.12143 8.75C2.12143 10.508 2.81979 12.194 4.06289 13.4371C5.30599 14.6802 6.99199 15.3786 8.75 15.3786C9.12871 15.3786 9.43571 15.6856 9.43571 16.0643Z" fill="#5C5F62"/>
<path fill-rule="evenodd" clip-rule="evenodd" d="M10.1492 11.9777C9.88137 12.2455 9.4472 12.2455 9.17941 11.9777L6.43656 9.23486C6.16877 8.96707 6.16877 8.5329 6.43656 8.26511L9.17941 5.52226C9.4472 5.25447 9.88137 5.25447 10.1492 5.52226C10.4169 5.79005 10.4169 6.22422 10.1492 6.492L8.57689 8.06427L16.0643 8.06427C16.443 8.06427 16.75 8.37128 16.75 8.74999C16.75 9.1287 16.443 9.4357 16.0643 9.4357L8.57689 9.4357L10.1492 11.008C10.4169 11.2758 10.4169 11.7099 10.1492 11.9777Z" fill="#5C5F62"/>
</svg>
