<svg width="8" height="7" viewBox="0 0 8 7" fill="none" xmlns="http://www.w3.org/2000/svg">
<path d="M2.63419 6.30873e-06C2.69554 -0.000289521 2.75635 0.00951793 2.81314 0.0288664C2.86994 0.0482149 2.92159 0.0767242 2.96514 0.112759L6.69415 3.22316C6.73784 3.2593 6.77252 3.30231 6.79618 3.34968C6.81985 3.39706 6.83203 3.44788 6.83203 3.49921C6.83203 3.55053 6.81985 3.60135 6.79618 3.64873C6.77252 3.69611 6.73784 3.73911 6.69415 3.77526L2.96514 6.88566C2.87737 6.95887 2.75832 7 2.63419 7C2.51006 7 2.39102 6.95887 2.30324 6.88566C2.21547 6.81244 2.16616 6.71315 2.16616 6.60961C2.16616 6.50607 2.21547 6.40677 2.30324 6.33356L5.70596 3.49921L2.30324 0.664854C2.25956 0.62871 2.22488 0.585709 2.20121 0.53833C2.17755 0.490951 2.16537 0.440133 2.16537 0.388806C2.16537 0.33748 2.17755 0.286662 2.20121 0.239283C2.22488 0.191904 2.25956 0.148903 2.30324 0.112759C2.3468 0.0767242 2.39845 0.0482149 2.45524 0.0288664C2.51204 0.00951791 2.57285 -0.000289532 2.63419 6.30873e-06Z" fill="white"/>
</svg>
