<svg width="24" height="24" viewBox="0 0 24 24" fill="none" xmlns="http://www.w3.org/2000/svg">
<path d="M21.44 16.84C21 16.01 20.36 15.28 19.58 14.72V10.42C19.58 8.35 18.75 6.4 17.24 4.94C16.39 4.11 15.38 3.51 14.28 3.13C14.17 2.63 13.91 2.16 13.53 1.79C13 1.28 12.3 1 11.56 1C10.82 1 10.12 1.28 9.59 1.79C9.21 2.16 8.95 2.64 8.84 3.14C7.75 3.52 6.75 4.13 5.91 4.95C4.41 6.41 3.59 8.35 3.59 10.42V14.72C2.81 15.27 2.16 16 1.71 16.83C1.24 17.7 1 18.67 1 19.65C1 19.92 1.11 20.19 1.31 20.39C1.51 20.58 1.78 20.69 2.06 20.69H8.08C8.25 21.24 8.55 21.75 8.98 22.17C9.67 22.84 10.59 23.21 11.56 23.21C12.53 23.21 13.45 22.84 14.14 22.17C14.57 21.75 14.86 21.24 15.04 20.69H21.06C21.34 20.69 21.61 20.58 21.81 20.39C22.01 20.2 22.12 19.93 22.12 19.65C22.12 18.68 21.89 17.71 21.43 16.84H21.44ZM12.65 20.69C12.56 20.78 12.45 20.86 12.33 20.93C11.87 21.19 11.27 21.19 10.8 20.93C10.68 20.86 10.58 20.78 10.48 20.69H12.65ZM3.27 18.61C3.4 18.14 3.61 17.71 3.9 17.32C4.24 16.86 4.67 16.48 5.18 16.19C5.34 16.1 5.48 15.97 5.57 15.81C5.66 15.65 5.71 15.47 5.71 15.29V10.42C5.71 8.91 6.32 7.48 7.42 6.41C8.49 5.37 9.97 4.77 11.49 4.75H11.6C13.15 4.75 14.6 5.35 15.7 6.41C16.8 7.48 17.41 8.91 17.41 10.42V15.29C17.41 15.47 17.46 15.66 17.55 15.81C17.64 15.97 17.78 16.1 17.94 16.19C18.45 16.47 18.88 16.85 19.22 17.32C19.51 17.71 19.72 18.15 19.85 18.61H3.27Z" fill="#5C5F62"/>
</svg>
