<svg width="8" height="7" viewBox="0 0 8 7" fill="none" xmlns="http://www.w3.org/2000/svg">
<path d="M6.19784 6.99999C6.13649 7.00029 6.07568 6.99048 6.01889 6.97113C5.9621 6.95178 5.91044 6.92328 5.86689 6.88724L2.13788 3.77684C2.09419 3.7407 2.05951 3.69769 2.03585 3.65032C2.01218 3.60294 2 3.55212 2 3.50079C2 3.44947 2.01218 3.39865 2.03585 3.35127C2.05951 3.30389 2.09419 3.26089 2.13788 3.22474L5.86689 0.114343C5.95466 0.0411304 6.07371 0 6.19784 0C6.32197 0 6.44101 0.0411304 6.52879 0.114343C6.61656 0.187555 6.66587 0.286853 6.66587 0.390391C6.66587 0.493929 6.61656 0.593227 6.52879 0.666439L3.12607 3.50079L6.52879 6.33515C6.57248 6.37129 6.60715 6.41429 6.63082 6.46167C6.65448 6.50905 6.66667 6.55987 6.66667 6.61119C6.66667 6.66252 6.65448 6.71334 6.63082 6.76072C6.60715 6.8081 6.57248 6.8511 6.52879 6.88724C6.48523 6.92328 6.43358 6.95178 6.37679 6.97113C6.32 6.99048 6.25918 7.00029 6.19784 6.99999Z" fill="white"/>
</svg>
