<svg width="20" height="20" viewBox="0 0 20 20" fill="none" xmlns="http://www.w3.org/2000/svg">
<path d="M11.2109 11.25C10.6706 10.8464 10.0879 10.5371 9.46289 10.3223C8.83789 10.1074 8.18359 10 7.5 10C6.92708 10 6.3737 10.0749 5.83984 10.2246C5.30599 10.3743 4.80794 10.5827 4.3457 10.8496C3.88346 11.1165 3.46354 11.4421 3.08594 11.8262C2.70833 12.2103 2.38281 12.6335 2.10938 13.0957C1.83594 13.5579 1.62435 14.056 1.47461 14.5898C1.32487 15.1237 1.25 15.6771 1.25 16.25H0C0 15.4688 0.113932 14.7168 0.341797 13.9941C0.569661 13.2715 0.898438 12.6042 1.32812 11.9922C1.75781 11.3802 2.26562 10.8366 2.85156 10.3613C3.4375 9.88607 4.10156 9.51172 4.84375 9.23828C4.47917 9.01042 4.15365 8.74349 3.86719 8.4375C3.58073 8.13151 3.33333 7.79297 3.125 7.42188C2.91667 7.05078 2.76367 6.66341 2.66602 6.25977C2.56836 5.85612 2.51302 5.4362 2.5 5C2.5 4.3099 2.63021 3.66211 2.89062 3.05664C3.15104 2.45117 3.50911 1.92383 3.96484 1.47461C4.42057 1.02539 4.95117 0.667318 5.55664 0.400391C6.16211 0.133464 6.8099 0 7.5 0C8.1901 0 8.83789 0.130208 9.44336 0.390625C10.0488 0.651042 10.5762 1.00911 11.0254 1.46484C11.4746 1.92057 11.8327 2.45117 12.0996 3.05664C12.3665 3.66211 12.5 4.3099 12.5 5C12.5 5.42969 12.4479 5.84961 12.3438 6.25977C12.2396 6.66992 12.0833 7.05729 11.875 7.42188C11.6667 7.78646 11.4193 8.12174 11.1328 8.42773C10.8464 8.73372 10.5176 9.00391 10.1465 9.23828C10.5371 9.38802 10.9049 9.5638 11.25 9.76562V11.25H11.2109ZM3.75 5C3.75 5.52083 3.84766 6.00586 4.04297 6.45508C4.23828 6.9043 4.50521 7.30143 4.84375 7.64648C5.18229 7.99154 5.57943 8.26172 6.03516 8.45703C6.49089 8.65234 6.97917 8.75 7.5 8.75C8.01432 8.75 8.49935 8.65234 8.95508 8.45703C9.41081 8.26172 9.80794 7.99479 10.1465 7.65625C10.485 7.31771 10.7552 6.92057 10.957 6.46484C11.1589 6.00911 11.2565 5.52083 11.25 5C11.25 4.48568 11.1523 4.00065 10.957 3.54492C10.7617 3.08919 10.4948 2.69206 10.1562 2.35352C9.81771 2.01497 9.41732 1.74479 8.95508 1.54297C8.49284 1.34115 8.00781 1.24349 7.5 1.25C6.97917 1.25 6.49414 1.34766 6.04492 1.54297C5.5957 1.73828 5.19857 2.00521 4.85352 2.34375C4.50846 2.68229 4.23828 3.08268 4.04297 3.54492C3.84766 4.00716 3.75 4.49219 3.75 5ZM20 12.5V20H10V12.5H12.5V10H17.5V12.5H20ZM13.75 12.5H16.25V11.25H13.75V12.5ZM18.75 16.25H17.5V17.5H16.25V16.25H13.75V17.5H12.5V16.25H11.25V18.75H18.75V16.25ZM18.75 13.75H11.25V15H18.75V13.75Z" fill="black"/>
</svg>
