<svg width="25" height="25" viewBox="0 0 25 25" fill="none" xmlns="http://www.w3.org/2000/svg">
<path fill-rule="evenodd" clip-rule="evenodd" d="M12.0908 4.0999C7.67754 4.0999 4.0999 7.67752 4.0999 12.0907C4.0999 16.5039 7.67754 20.0815 12.0908 20.0815C16.5041 20.0815 20.0817 16.5039 20.0817 12.0907C20.0817 7.67752 16.5041 4.0999 12.0908 4.0999ZM1.8999 12.0907C1.8999 6.46247 6.46254 1.8999 12.0908 1.8999C17.7191 1.8999 22.2817 6.46247 22.2817 12.0907C22.2817 17.719 17.7191 22.2815 12.0908 22.2815C6.46254 22.2815 1.8999 17.719 1.8999 12.0907Z" fill="#5C5F62"/>
<path fill-rule="evenodd" clip-rule="evenodd" d="M17.737 17.737C18.1665 17.3074 18.863 17.3074 19.2926 17.737L23.7775 22.2218C24.2071 22.6514 24.2071 23.3478 23.7775 23.7774C23.3479 24.207 22.6514 24.207 22.2218 23.7774L17.737 19.2926C17.3074 18.863 17.3074 18.1666 17.737 17.737Z" fill="#5C5F62"/>
</svg>
