<svg width="24" height="24" viewBox="0 0 24 24" fill="none" xmlns="http://www.w3.org/2000/svg">
<path d="M20.8262 7.22461C21.6465 6.60938 22.3848 5.87109 22.959 5.00977C22.2207 5.33789 21.3594 5.58398 20.498 5.66602C21.4004 5.13281 22.0566 4.3125 22.3848 3.28711C21.5645 3.7793 20.6211 4.14844 19.6777 4.35352C18.8574 3.49219 17.75 3 16.5195 3C14.1406 3 12.2129 4.92773 12.2129 7.30664C12.2129 7.63477 12.2539 7.96289 12.3359 8.29102C8.76758 8.08594 5.56836 6.36328 3.43555 3.7793C3.06641 4.39453 2.86133 5.13281 2.86133 5.95312C2.86133 7.42969 3.59961 8.74219 4.78906 9.52148C4.0918 9.48047 3.39453 9.31641 2.82031 8.98828V9.0293C2.82031 11.1211 4.29688 12.8438 6.26562 13.2539C5.9375 13.3359 5.52734 13.418 5.1582 13.418C4.87109 13.418 4.625 13.377 4.33789 13.3359C4.87109 15.0586 6.4707 16.2891 8.35742 16.3301C6.88086 17.4785 5.03516 18.1758 3.02539 18.1758C2.65625 18.1758 2.32812 18.1348 2 18.0938C3.88672 19.3242 6.14258 20.0215 8.60352 20.0215C16.5195 20.0215 20.8262 13.5 20.8262 7.79883C20.8262 7.59375 20.8262 7.42969 20.8262 7.22461Z" fill="#010101"/>
</svg>
