<svg width="20" height="20" viewBox="0 0 20 20" fill="none" xmlns="http://www.w3.org/2000/svg">
<path d="M10 14C11.1333 14 12.3917 13.775 13.775 13.325C15.1583 12.875 17.2333 12.0833 20 10.95V10.575C20 9.725 19.6583 9.04167 18.975 8.525C18.2917 8.00833 17.5417 7.86667 16.725 8.1C16.4417 8.18333 16.154 8.28333 15.862 8.4C15.57 8.51667 15.1827 8.66667 14.7 8.85C13.6833 9.28333 12.825 9.58333 12.125 9.75C11.425 9.91667 10.7167 10 10 10C9.25 10 8.525 9.91267 7.825 9.738C7.125 9.56333 6.24167 9.259 5.175 8.825C4.775 8.65833 4.42933 8.521 4.138 8.413C3.84667 8.305 3.56733 8.209 3.3 8.125C2.48333 7.85833 1.72933 7.98333 1.038 8.5C0.346667 9.01667 0.000666667 9.70833 0 10.575V10.9C2.18333 11.9 4.1 12.6667 5.75 13.2C7.4 13.7333 8.81667 14 10 14ZM10 20C12.3 20 14.321 19.3707 16.063 18.112C17.805 16.8533 18.984 15.241 19.6 13.275C17.4167 14.2083 15.5833 14.896 14.1 15.338C12.6167 15.78 11.25 16.0007 10 16C8.73333 16 7.28733 15.7623 5.662 15.287C4.03667 14.8117 2.266 14.1327 0.35 13.25C0.916667 15.3 2.05833 16.9377 3.775 18.163C5.49167 19.3883 7.56667 20.0007 10 20ZM10 8C8.9 8 7.95833 7.60833 7.175 6.825C6.39167 6.04167 6 5.1 6 4C6 2.9 6.39167 1.95833 7.175 1.175C7.95833 0.391667 8.9 0 10 0C11.1 0 12.0417 0.391667 12.825 1.175C13.6083 1.95833 14 2.9 14 4C14 5.1 13.6083 6.04167 12.825 6.825C12.0417 7.60833 11.1 8 10 8Z" fill="#285BCD"/>
</svg>
