<svg width="64" height="50" viewBox="0 0 64 50" fill="none" xmlns="http://www.w3.org/2000/svg">
<path d="M63.1379 39.3851C63.1379 44.7413 58.7764 49.1028 53.4202 49.1028H0.546875V10.6147C0.546875 5.25854 4.90844 0.896973 10.2646 0.896973H63.1379V39.3851Z" fill="white"/>
<path d="M45.918 29.5144H49.935C50.05 29.5144 50.3177 29.4762 50.4326 29.4762C51.1979 29.3232 51.8482 28.6344 51.8482 27.678C51.8482 26.7599 51.1979 26.0711 50.4326 25.8799C50.3177 25.8416 50.0883 25.8416 49.9353 25.8416H45.9182V29.5144H45.918Z" fill="url(#paint0_linear_419_963)"/>
<path d="M49.478 4.14893C45.6521 4.14893 42.5147 7.24816 42.5147 11.1122V18.3432H52.3474C52.5769 18.3432 52.8447 18.3432 53.0359 18.3813C55.2549 18.4962 56.9001 19.6439 56.9001 21.6331C56.9001 23.2018 55.7906 24.5409 53.7246 24.8089V24.8851C55.9818 25.0382 57.7035 26.3008 57.7035 28.2519C57.7035 30.3562 55.7906 31.7335 53.2655 31.7335H42.4766V45.8893H52.6916C56.5175 45.8893 59.6549 42.7903 59.6549 38.9261V4.14893H49.478Z" fill="url(#paint1_linear_419_963)"/>
<path d="M51.3507 22.0925C51.3507 21.1742 50.7003 20.562 49.935 20.4471C49.8588 20.4471 49.6673 20.4089 49.5527 20.4089H45.918V23.7756H49.5527C49.6676 23.7756 49.8969 23.7756 49.9353 23.7375C50.7006 23.6226 51.3509 23.0106 51.3509 22.0923L51.3507 22.0925Z" fill="url(#paint2_linear_419_963)"/>
<path d="M10.9897 4.14893C7.1638 4.14893 4.02642 7.24816 4.02642 11.1122V28.2905C5.97775 29.2467 8.00536 29.8589 10.0332 29.8589C12.4435 29.8589 13.7442 28.4052 13.7442 26.4157V18.3048H19.7126V26.3773C19.7126 29.5144 17.7615 32.078 11.1427 32.078C7.12566 32.078 3.98828 31.1978 3.98828 31.1978V45.851H14.2033C18.0292 45.851 21.1666 42.752 21.1666 38.8877V4.14941H10.9894L10.9897 4.14893Z" fill="url(#paint3_linear_419_963)"/>
<path d="M30.2367 4.14893C26.4108 4.14893 23.2734 7.24816 23.2734 11.1122V20.2177C25.0336 18.7256 28.0942 17.7691 33.0296 17.9987C35.6694 18.1136 38.5004 18.8405 38.5004 18.8405V21.7864C37.0848 21.0595 35.4017 20.4089 33.2208 20.2559C29.4714 19.9881 27.2142 21.8245 27.2142 25.0382C27.2142 28.2902 29.4714 30.1267 33.2208 29.8205C35.4017 29.6675 37.085 28.979 38.5004 28.2902V31.2362C38.5004 31.2362 35.7075 31.9631 33.0296 32.078C28.0942 32.3073 25.0336 31.3509 23.2737 29.8589V45.9275H33.4887C37.3146 45.9275 40.4517 42.8285 40.4517 38.9642V4.14941H30.2367V4.14893Z" fill="url(#paint4_linear_419_963)"/>
<defs>
<linearGradient id="paint0_linear_419_963" x1="-295.232" y1="209.938" x2="1424.06" y2="209.938" gradientUnits="userSpaceOnUse">
<stop stop-color="#007940"/>
<stop offset="0.2285" stop-color="#00873F"/>
<stop offset="0.7433" stop-color="#40A737"/>
<stop offset="1" stop-color="#5CB531"/>
</linearGradient>
<linearGradient id="paint1_linear_419_963" x1="45.6202" y1="2089.5" x2="1765" y2="2089.5" gradientUnits="userSpaceOnUse">
<stop stop-color="#007940"/>
<stop offset="0.2285" stop-color="#00873F"/>
<stop offset="0.7433" stop-color="#40A737"/>
<stop offset="1" stop-color="#5CB531"/>
</linearGradient>
<linearGradient id="paint2_linear_419_963" x1="-295.282" y1="188.267" x2="1424.1" y2="188.267" gradientUnits="userSpaceOnUse">
<stop stop-color="#007940"/>
<stop offset="0.2285" stop-color="#00873F"/>
<stop offset="0.7433" stop-color="#40A737"/>
<stop offset="1" stop-color="#5CB531"/>
</linearGradient>
<linearGradient id="paint3_linear_419_963" x1="7.01166" y1="2089.5" x2="1752.88" y2="2089.5" gradientUnits="userSpaceOnUse">
<stop stop-color="#1F286F"/>
<stop offset="0.4751" stop-color="#004E94"/>
<stop offset="0.8261" stop-color="#0066B1"/>
<stop offset="1" stop-color="#006FBC"/>
</linearGradient>
<linearGradient id="paint4_linear_419_963" x1="13.3787" y1="2089.48" x2="1709.03" y2="2089.48" gradientUnits="userSpaceOnUse">
<stop stop-color="#6C2C2F"/>
<stop offset="0.1735" stop-color="#882730"/>
<stop offset="0.5731" stop-color="#BE1833"/>
<stop offset="0.8585" stop-color="#DC0436"/>
<stop offset="1" stop-color="#E60039"/>
</linearGradient>
</defs>
</svg>
