<svg width="76" height="50" viewBox="0 0 76 50" fill="none" xmlns="http://www.w3.org/2000/svg">
<path d="M72.5455 0.896973H3.55859C1.90174 0.896973 0.558594 2.24012 0.558594 3.89698V46.1028C0.558594 47.7597 1.90175 49.1028 3.5586 49.1028H72.5455C74.2024 49.1028 75.5455 47.7597 75.5455 46.1028V3.89697C75.5455 2.24012 74.2024 0.896973 72.5455 0.896973Z" fill="#16366F"/>
<path d="M43.7251 25.0002C43.7251 34.5588 35.9986 42.3062 26.4675 42.3062C16.9365 42.3062 9.21094 34.5584 9.21094 25.0002C9.21094 15.4427 16.9367 7.69434 26.4675 7.69434C35.9983 7.69434 43.7251 15.4429 43.7251 25.0002Z" fill="#D9222A"/>
<path d="M49.6345 7.69336C45.1757 7.69336 41.1126 9.38982 38.05 12.1732C37.4261 12.741 36.8437 13.353 36.3075 14.0047H39.794C40.2714 14.5867 40.7108 15.199 41.1096 15.8377H34.992C34.624 16.4279 34.2921 17.0399 33.9978 17.6703H42.1033C42.3814 18.2666 42.6254 18.8784 42.834 19.5025H33.2672C33.0661 20.1037 32.8988 20.7155 32.7656 21.3352H43.3349C43.5934 22.5394 43.7237 23.7678 43.7234 24.9997C43.7234 26.9215 43.4106 28.7706 42.8338 30.497H33.267C33.475 31.1217 33.7188 31.7335 33.9971 32.3298H42.1031C41.8086 32.9604 41.4763 33.5725 41.1084 34.1629H34.9917C35.391 34.802 35.831 35.4142 36.3073 35.9944H39.7931C39.2576 36.6473 38.675 37.2599 38.0501 37.8273C41.113 40.6104 45.1756 42.306 49.6346 42.306C59.1654 42.3059 66.8922 34.5582 66.8922 25.0001C66.8922 15.4428 59.1656 7.69423 49.6346 7.69423" fill="#EE9F2D"/>
<path d="M64.5934 34.647C64.5934 34.3384 64.8426 34.0877 65.1506 34.0877C65.4586 34.0877 65.7078 34.3384 65.7078 34.647C65.7078 34.9554 65.4586 35.2061 65.1506 35.2061C64.8428 35.206 64.5933 34.9556 64.5934 34.647ZM65.1506 35.072C65.3847 35.0719 65.5743 34.8816 65.5744 34.647C65.5744 34.4124 65.3848 34.2224 65.151 34.2224H65.1506C64.9171 34.222 64.7276 34.4116 64.7272 34.6458V34.6471C64.7269 34.8816 64.9163 35.0719 65.1501 35.0721C65.1502 35.072 65.1504 35.072 65.1506 35.072ZM65.0753 34.8926H64.9611V34.4015H65.1677C65.211 34.4015 65.255 34.4015 65.2932 34.426C65.3329 34.4528 65.3553 34.5002 65.3553 34.5492C65.3553 34.6042 65.3229 34.6557 65.2704 34.6757L65.3605 34.8926H65.2341L65.1591 34.6983H65.0754L65.0753 34.8926ZM65.0753 34.614H65.1386C65.1623 34.614 65.1871 34.6159 65.2083 34.6044C65.2271 34.5923 65.2368 34.5698 65.2368 34.5481C65.2368 34.5293 65.2252 34.5076 65.2091 34.4983C65.1892 34.4857 65.1575 34.4886 65.1362 34.4886H65.0753V34.614ZM22.4386 26.895C22.242 26.8721 22.1554 26.866 22.0204 26.866C20.9585 26.866 20.4209 27.2313 20.4209 27.9523C20.4209 28.3969 20.6834 28.6799 21.0926 28.6799C21.8558 28.6799 22.4058 27.951 22.4386 26.895ZM23.8009 30.0762H22.2487L22.2844 29.3361C21.8109 29.9211 21.1792 30.199 20.3208 30.199C19.3054 30.199 18.6091 29.4036 18.6091 28.2487C18.6091 26.511 19.8201 25.4971 21.8987 25.4971C22.1109 25.4971 22.3833 25.5164 22.6621 25.552C22.7202 25.3166 22.7354 25.2159 22.7354 25.0892C22.7354 24.616 22.4089 24.4396 21.5337 24.4396C20.6172 24.4292 19.8613 24.6585 19.5509 24.761C19.5705 24.6424 19.8105 23.155 19.8105 23.155C20.7441 22.8806 21.3599 22.7773 22.0529 22.7773C23.6615 22.7773 24.5136 23.5016 24.512 24.8706C24.5151 25.2375 24.4546 25.6901 24.3601 26.2851C24.1975 27.3197 23.8487 29.5359 23.8009 30.0762ZM17.8252 30.0762H15.9517L17.0249 23.3277L14.6287 30.0762H13.352L13.1943 23.3662L12.0662 30.0762H10.3125L11.7774 21.2975H14.4712L14.6346 26.2112L16.2778 21.2975H19.2741L17.8252 30.0762ZM51.952 26.895C51.7561 26.8721 51.6691 26.866 51.5345 26.866C50.4731 26.866 49.9354 27.2313 49.9354 27.9523C49.9354 28.3969 50.1975 28.6799 50.6067 28.6799C51.37 28.6799 51.9203 27.951 51.952 26.895ZM53.3155 30.0762H51.7633L51.7984 29.3361C51.325 29.9211 50.6929 30.199 49.8353 30.199C48.8195 30.199 48.1241 29.4036 48.1241 28.2487C48.1241 26.511 49.3342 25.4971 51.4131 25.4971C51.6254 25.4971 51.8974 25.5164 52.1759 25.552C52.2339 25.3166 52.2492 25.2159 52.2492 25.0892C52.2492 24.616 51.9231 24.4396 51.0479 24.4396C50.1314 24.4292 49.3763 24.6585 49.0646 24.761C49.0843 24.6424 49.325 23.155 49.325 23.155C50.2588 22.8806 50.8741 22.7773 51.5662 22.7773C53.1756 22.7773 54.0277 23.5016 54.0261 24.8706C54.0292 25.2375 53.9687 25.6901 53.8742 26.2851C53.7125 27.3197 53.3628 29.5359 53.3155 30.0762ZM32.1278 29.9677C31.615 30.1297 31.2153 30.199 30.7819 30.199C29.8241 30.199 29.3014 29.6471 29.3014 28.6307C29.2877 28.3154 29.4392 27.4854 29.5581 26.7278C29.6662 26.0609 30.3704 21.8561 30.3704 21.8561H32.2327L32.0153 22.9368H33.1401L32.886 24.6526H31.7571C31.5408 26.0103 31.2328 27.7016 31.2292 27.9257C31.2292 28.2937 31.4251 28.4544 31.8705 28.4544C32.084 28.4544 32.2493 28.4326 32.3757 28.3869L32.1278 29.9677ZM37.8375 29.9099C37.1978 30.1059 36.5805 30.2008 35.9264 30.1991C33.8419 30.1971 32.7551 29.1052 32.7551 27.0145C32.7551 24.574 34.1376 22.7774 36.0142 22.7774C37.5495 22.7774 38.5301 23.7833 38.5301 25.3609C38.5301 25.8843 38.4628 26.3953 38.3006 27.1167H34.5921C34.4667 28.1524 35.1276 28.5838 36.2108 28.5838C36.8775 28.5838 37.4786 28.446 38.1472 28.1343L37.8375 29.9099ZM36.7909 25.6774C36.8011 25.5287 36.9883 24.4031 35.9244 24.4031C35.3311 24.4031 34.907 24.8567 34.7342 25.6774H36.7909ZM24.9256 25.1937C24.9256 26.0968 25.3622 26.7194 26.3524 27.1871C27.1111 27.5447 27.2285 27.6508 27.2285 27.9748C27.2285 28.4199 26.8939 28.6208 26.1525 28.6208C25.5938 28.6208 25.0739 28.5333 24.4742 28.3392C24.4742 28.3392 24.2278 29.9127 24.2165 29.988C24.6424 30.0811 25.0221 30.1674 26.1662 30.1991C28.1429 30.1991 29.0559 29.4443 29.0559 27.8129C29.0559 26.8319 28.6737 26.2563 27.7352 25.8237C26.9497 25.4621 26.8595 25.3813 26.8595 25.0479C26.8595 24.6619 27.1708 24.465 27.7765 24.465C28.1442 24.465 28.6465 24.5044 29.1224 24.5723L29.3892 22.9165C28.9041 22.8393 28.1686 22.7774 27.7404 22.7774C25.6446 22.7774 24.9192 23.8753 24.9256 25.1937ZM46.9497 22.9651C47.4701 22.9651 47.9552 23.102 48.6237 23.4394L48.9301 21.5341C48.6557 21.4261 47.6895 20.7917 46.8712 20.7917C45.6174 20.7917 44.5576 21.4155 43.8121 22.4452C42.7248 22.0841 42.2779 22.814 41.7299 23.5411L41.2433 23.6548C41.2801 23.4154 41.3134 23.1776 41.3022 22.9369H39.5817C39.3467 25.1464 38.93 27.3844 38.6039 29.5966L38.5189 30.0763H40.3932C40.706 28.0379 40.8776 26.7326 40.9817 25.8494L41.6875 25.4557C41.7929 25.0623 42.1229 24.9295 42.785 24.9455C42.696 25.4283 42.6515 25.9183 42.6521 26.4094C42.6521 28.7449 43.9087 30.1991 45.9255 30.1991C46.445 30.1991 46.8909 30.1305 47.5811 29.943L47.9109 27.9415C47.2899 28.248 46.7803 28.3923 46.3188 28.3923C45.2298 28.3923 44.5708 27.5861 44.5708 26.2535C44.5707 24.3204 45.5509 22.9651 46.9497 22.9651Z" fill="black"/>
<path d="M18.3643 29.5541H16.4905L17.5643 22.8065L15.1681 29.5541H13.8912L13.7334 22.845L12.6054 29.5541H10.8516L12.3165 20.7766H15.0103L15.086 26.2106L16.9034 20.7766H19.8132L18.3643 29.5541Z" fill="white"/>
<path d="M62.8073 21.2979L62.3921 23.8343C61.8797 23.1582 61.3294 22.6689 60.6028 22.6689C59.6574 22.6689 58.7969 23.3876 58.2338 24.4453C57.4495 24.2822 56.6382 24.0054 56.6382 24.0054L56.6378 24.0118C56.7011 23.4205 56.7262 23.0598 56.7207 22.9372H54.9998C54.7655 25.1467 54.349 27.3847 54.0234 29.5969L53.9375 30.0766H55.8114C56.0645 28.4283 56.2584 27.0596 56.401 25.9742C57.0412 25.3941 57.3616 24.8879 58.0085 24.9217C57.7221 25.6164 57.5543 26.4164 57.5543 27.2372C57.5543 29.0221 58.4548 30.1994 59.8168 30.1994C60.5033 30.1994 61.03 29.9621 61.544 29.4118L61.4563 30.0755H63.2284L64.6552 21.2979H62.8073ZM60.4644 28.4267C59.8267 28.4267 59.5047 27.9534 59.5047 27.0194C59.5047 25.6163 60.1076 24.6212 60.9575 24.6212C61.6012 24.6212 61.9497 25.1132 61.9497 26.0199C61.9498 27.4353 61.3374 28.4267 60.4644 28.4267Z" fill="black"/>
<path d="M22.9771 26.3749C22.7808 26.3522 22.6939 26.346 22.5593 26.346C21.4974 26.346 20.9601 26.7112 20.9601 27.4323C20.9601 27.8761 21.2226 28.1599 21.6312 28.1599C22.395 28.1598 22.945 27.4311 22.9771 26.3749ZM24.3402 29.555H22.788L22.8233 28.8162C22.3502 29.3998 21.7177 29.679 20.8601 29.679C19.8442 29.679 19.1484 28.8836 19.1484 27.7287C19.1484 25.9902 20.3589 24.9769 22.4379 24.9769C22.6502 24.9769 22.9226 24.9962 23.201 25.032C23.2591 24.7966 23.2743 24.6958 23.2743 24.5684C23.2743 24.0953 22.9483 23.9196 22.0729 23.9196C21.1561 23.9092 20.4006 24.1386 20.0897 24.2399C20.1093 24.1217 20.3493 22.6358 20.3493 22.6358C21.2827 22.3602 21.8991 22.2569 22.5913 22.2569C24.2004 22.2569 25.0528 22.9817 25.0513 24.3495C25.054 24.7178 24.9931 25.1701 24.899 25.7643C24.7368 26.7984 24.3875 29.0158 24.3402 29.555ZM49.4685 21.0136L49.1617 22.9194C48.4935 22.5824 48.008 22.445 47.4882 22.445C46.0893 22.445 45.1088 23.8003 45.1088 25.7333C45.1088 27.0658 45.768 27.8718 46.8569 27.8718C47.3183 27.8718 47.8275 27.728 48.4483 27.4209L48.1195 29.4214C47.4289 29.6103 46.9836 29.679 46.4635 29.679C44.4469 29.679 43.19 28.2248 43.19 25.8892C43.19 22.751 44.9261 20.5576 47.4093 20.5576C48.2271 20.5577 49.1938 20.9056 49.4685 21.0136ZM52.4913 26.3749C52.2951 26.3522 52.2085 26.346 52.0735 26.346C51.0119 26.346 50.4743 26.7112 50.4743 27.4323C50.4743 27.8761 50.7367 28.1599 51.1457 28.1599C51.9088 28.1598 52.4592 27.4311 52.4913 26.3749ZM53.8544 29.555H52.3018L52.3374 28.8162C51.864 29.3998 51.2318 29.679 50.3742 29.679C49.3587 29.679 48.6626 28.8836 48.6626 27.7287C48.6626 25.9902 49.8735 24.9769 51.9517 24.9769C52.1644 24.9769 52.4364 24.9962 52.7151 25.032C52.7729 24.7966 52.7884 24.6958 52.7884 24.5684C52.7884 24.0953 52.4623 23.9196 51.5871 23.9196C50.6706 23.9092 49.9147 24.1386 49.6039 24.2399C49.6235 24.1217 49.8638 22.6358 49.8638 22.6358C50.7972 22.3602 51.4132 22.2569 52.1054 22.2569C53.7149 22.2569 54.5669 22.9817 54.5649 24.3495C54.5681 24.7178 54.5077 25.1701 54.4131 25.7643C54.2514 26.7984 53.9012 29.0158 53.8544 29.555ZM32.6668 29.4468C32.1536 29.6088 31.7538 29.679 31.3208 29.679C30.363 29.679 29.8403 29.127 29.8403 28.1108C29.8271 27.7945 29.9785 26.9653 30.0975 26.2078C30.2052 25.5401 30.9095 21.3359 30.9095 21.3359H32.7713L32.5542 22.4168H33.51L33.2556 24.1318H32.2966C32.0803 25.4903 31.7714 27.1802 31.7683 27.4049C31.7683 27.7741 31.9646 27.9335 32.4096 27.9335C32.623 27.9335 32.7882 27.9126 32.9147 27.8668L32.6668 29.4468ZM38.3765 29.3898C37.7372 29.5858 37.119 29.6803 36.4653 29.679C34.3807 29.677 33.294 28.5851 33.294 26.4943C33.294 24.053 34.6765 22.257 36.5531 22.257C38.0884 22.257 39.069 23.2624 39.069 24.8408C39.069 25.3646 39.0017 25.8756 38.84 26.5967H35.1315C35.006 27.6322 35.6669 28.0641 36.7502 28.0641C37.4164 28.0641 38.018 27.9259 38.6861 27.6133L38.3765 29.3898ZM37.3294 25.1562C37.3406 25.0079 37.5273 23.8819 36.4629 23.8819C35.8701 23.8819 35.4459 24.3367 35.2732 25.1562H37.3294ZM25.4642 24.6737C25.4642 25.5766 25.9008 26.1986 26.891 26.667C27.6496 27.0245 27.767 27.131 27.767 27.4547C27.767 27.8999 27.4322 28.1007 26.6915 28.1007C26.1323 28.1007 25.6124 28.0131 25.0123 27.8192C25.0123 27.8192 24.7668 29.3926 24.7556 29.4678C25.1806 29.561 25.5607 29.6462 26.7047 29.679C28.682 29.679 29.5945 28.9242 29.5945 27.2932C29.5945 26.3118 29.2127 25.7362 28.2738 25.3036C27.4886 24.9413 27.3978 24.8617 27.3978 24.5279C27.3978 24.1422 27.7097 23.9438 28.315 23.9438C28.6823 23.9438 29.1847 23.9843 29.6613 24.0523L29.9277 22.3959C29.4431 22.3188 28.7076 22.257 28.2793 22.257C26.1832 22.257 25.4582 23.354 25.4642 24.6737ZM63.77 29.555H61.9975L62.0857 28.8904C61.5716 29.4416 61.045 29.679 60.3584 29.679C58.9963 29.679 58.0963 28.5016 58.0963 26.7168C58.0963 24.3422 59.4923 22.3404 61.1447 22.3404C61.8713 22.3404 62.4214 22.6381 62.9332 23.3137L63.349 20.7773H65.1968L63.77 29.555ZM61.0065 27.9054C61.879 27.9054 62.4918 26.914 62.4918 25.4997C62.4918 24.5929 62.1429 24.1008 61.4992 24.1008C60.6496 24.1008 60.046 25.0955 60.046 26.4991C60.0459 27.4329 60.3687 27.9054 61.0065 27.9054ZM55.5418 22.4168C55.3073 24.6263 54.8907 26.8643 54.5649 29.0753L54.4792 29.555H56.353C57.0232 25.1899 57.1854 24.3374 58.2361 24.4443C58.4036 23.5509 58.7151 22.7683 58.9474 22.3734C58.1627 22.2095 57.7245 22.6543 57.1508 23.499C57.1961 23.1339 57.2791 22.7792 57.2627 22.4168H55.5418ZM40.1195 22.4168C39.8843 24.6263 39.4677 26.8643 39.1421 29.0753L39.0568 29.555H40.9315C41.6008 25.1899 41.7627 24.3374 42.8128 24.4443C42.981 23.5509 43.2927 22.7683 43.5242 22.3734C42.7403 22.2095 42.3017 22.6543 41.7285 23.499C41.7737 23.1339 41.8559 22.7792 41.8402 22.4168H40.1195ZM64.5931 28.9962C64.5931 28.6863 64.8427 28.437 65.1503 28.437C65.4577 28.4367 65.7071 28.6864 65.7074 28.9947V28.9962C65.7073 29.3047 65.4579 29.5548 65.1503 29.555C64.8427 29.5548 64.5933 29.3047 64.5931 28.9962ZM65.1503 29.4207C65.3841 29.4208 65.5736 29.2308 65.5736 28.9964V28.9963C65.5739 28.7617 65.3844 28.5715 65.1507 28.5713H65.1503C64.9162 28.5714 64.7265 28.7616 64.7264 28.9963C64.7267 29.2307 64.9164 29.4207 65.1503 29.4207ZM65.0749 29.2405H64.9607V28.7503H65.1678C65.2107 28.7503 65.2551 28.7511 65.2924 28.7748C65.3324 28.8021 65.3553 28.8487 65.3553 28.8976C65.3553 28.9531 65.3228 29.0049 65.2699 29.0246L65.3604 29.2402H65.2336L65.1586 29.0466H65.0749V29.2402V29.2405ZM65.0749 28.9628H65.1378C65.1614 28.9628 65.1871 28.9645 65.2079 28.9532C65.2266 28.9411 65.2363 28.9183 65.2363 28.8966C65.2354 28.8763 65.2252 28.8576 65.2087 28.846C65.1891 28.8348 65.1566 28.8378 65.1353 28.8378H65.0748L65.0749 28.9628Z" fill="white"/>
</svg>
