<svg width="75" height="50" viewBox="0 0 75 50" fill="none" xmlns="http://www.w3.org/2000/svg">
<path d="M3.82351 0.896973H70.7349C72.8466 0.896973 74.5584 2.62361 74.5584 4.75344V45.2464C74.5584 47.3763 72.8466 49.1028 70.7349 49.1028H3.82351C1.71188 49.1028 0 47.3763 0 45.2464V4.75344C0 2.62361 1.71188 0.896973 3.82351 0.896973Z" fill="#0E4595"/>
<path d="M28.0287 34.5187L31.2176 15.6451H36.3181L33.127 34.5187H28.0287ZM51.5538 16.052C50.5434 15.6696 48.9598 15.2593 46.9826 15.2593C41.9427 15.2593 38.3926 17.819 38.3625 21.4878C38.3339 24.1998 40.8969 25.7127 42.8314 26.6155C44.8169 27.5406 45.4841 28.1305 45.4748 28.9567C45.4623 30.2217 43.8894 30.7997 42.4234 30.7997C40.382 30.7997 39.2974 30.5136 37.6223 29.809L36.9651 29.5091L36.2492 33.7342C37.4405 34.261 39.6436 34.7174 41.9308 34.741C47.2923 34.741 50.7726 32.2106 50.8124 28.2928C50.8314 26.1458 49.4726 24.5119 46.53 23.1648C44.7473 22.2918 43.6555 21.7091 43.667 20.8251C43.667 20.0406 44.5912 19.2016 46.5879 19.2016C48.2558 19.1756 49.4641 19.5425 50.4055 19.9247L50.8625 20.1426L51.5538 16.052ZM64.6789 15.6448H60.7377C59.5167 15.6448 58.603 15.981 58.0668 17.21L50.4921 34.5062H55.848C55.848 34.5062 56.7235 32.1805 56.9216 31.67C57.5071 31.67 62.7099 31.6781 63.4539 31.6781C63.6064 32.3388 64.0742 34.5062 64.0742 34.5062H68.8072L64.6789 15.6442V15.6448ZM58.4258 27.8322C58.8475 26.7448 60.458 22.5563 60.458 22.5563C60.4278 22.6066 60.8765 21.4636 61.1342 20.7549L61.4787 22.3823C61.4787 22.3823 62.4556 26.8875 62.6596 27.8322H58.4258ZM23.6988 15.6448L18.7053 28.5158L18.1731 25.9001C17.2435 22.8851 14.3472 19.6184 11.1094 17.983L15.6752 34.4887L21.0717 34.4825L29.1015 15.6446H23.6988" fill="white"/>
<path d="M14.0435 15.6439H5.819L5.75391 16.0366C12.1524 17.5989 16.3861 21.3743 18.144 25.9102L16.3555 17.237C16.0468 16.0419 15.1514 15.6853 14.0437 15.6436" fill="#F2AE14"/>
</svg>
